<?xml version="1.0" encoding="UTF-8" standalone="no"?>
<svg
   viewBox="0 330 325 324.99999"
   version="1.1"
   width="325"
   height="325"
   id="svg9"
   sodipodi:docname="hyprland-logo.svg"
   inkscape:version="1.4.2 (ebf0e940d0, 2025-05-08)"
   xmlns:inkscape="http://www.inkscape.org/namespaces/inkscape"
   xmlns:sodipodi="http://sodipodi.sourceforge.net/DTD/sodipodi-0.dtd"
   xmlns:xlink="http://www.w3.org/1999/xlink"
   xmlns="http://www.w3.org/2000/svg"
   xmlns:svg="http://www.w3.org/2000/svg">
  <sodipodi:namedview
     id="namedview9"
     pagecolor="#ffffff"
     bordercolor="#000000"
     borderopacity="0.25"
     inkscape:showpageshadow="2"
     inkscape:pageopacity="0.0"
     inkscape:pagecheckerboard="0"
     inkscape:deskcolor="#d1d1d1"
     inkscape:zoom="1.3631531"
     inkscape:cx="503.245"
     inkscape:cy="173.49481"
     inkscape:window-width="1920"
     inkscape:window-height="964"
     inkscape:window-x="0"
     inkscape:window-y="0"
     inkscape:window-maximized="1"
     inkscape:current-layer="svg9" />
  <defs
     id="defs3">
    <style
       id="style1">
      .st0 {
        fill: url(#a);
      }

      .st1 {
        fill: url(#b);
      }

      .st2 {
        fill: url(#c);
      }

      .st3 {
        fill: url(#d);
      }

      .st4 {
        fill: url(#e);
      }

      .st5 {
        fill: url(#f);
      }

      .st6 {
        fill: url(#g);
      }

      .st7 {
        fill: url(#h);
      }

      .st8 {
        fill: url(#i);
      }
    </style>
    <style
       class="darkreader darkreader--sync"
       media="screen"
       id="style2" />
    <linearGradient
       gradientUnits="userSpaceOnUse"
       y2="491.29001"
       x2="561.92999"
       y1="593.84998"
       x1="561.92999"
       id="i">
      <stop
         stop-color="#00a8f4"
         offset="0"
         style="--darkreader-inline-stopcolor: var(--darkreader-background-00a8f4, #0086c3);"
         data-darkreader-inline-stopcolor=""
         id="stop2" />
      <stop
         stop-color="#00e5d0"
         offset="1"
         style="--darkreader-inline-stopcolor: var(--darkreader-background-00e5d0, #00b7a6);"
         data-darkreader-inline-stopcolor=""
         id="stop3" />
    </linearGradient>
    <linearGradient
       xlink:href="#i"
       y2="491.57999"
       x2="630.69"
       y1="567.47998"
       x1="630.69"
       id="c" />
    <linearGradient
       xlink:href="#i"
       y2="493.76999"
       x2="480.34"
       y1="596.03998"
       x1="480.34"
       id="a" />
    <linearGradient
       xlink:href="#i"
       y2="470.31"
       x2="392.85999"
       y1="567.47998"
       x1="392.85999"
       id="b" />
    <linearGradient
       xlink:href="#i"
       y2="491.73001"
       x2="804.78998"
       y1="567.47998"
       x1="804.78998"
       id="f" />
    <linearGradient
       xlink:href="#i"
       y2="463.45999"
       x2="883.96997"
       y1="569.66998"
       x1="883.96997"
       id="g" />
    <linearGradient
       xlink:href="#i"
       y2="465.94"
       x2="671.56"
       y1="567.47998"
       x1="671.56"
       id="d" />
    <linearGradient
       xlink:href="#i"
       y2="491.57999"
       x2="724.22998"
       y1="569.66998"
       x1="724.22998"
       id="e" />
    <linearGradient
       xlink:href="#i"
       y2="346.78"
       x2="202.09"
       y1="659.70001"
       x1="202.09"
       id="h"
       gradientTransform="translate(-39.127354,-9.8687463)" />
  </defs>
  <path
     d="m 271.90265,481.68125 c -9.09,-20.56 -22.42,-39.71 -35.29,-58.22 -2.38,-3.41 -4.62,-6.64 -6.84,-9.87 -3.15,-4.6 -7.42,-10.49 -12.36,-17.31 -11.29,-15.59 -28.92,-39.62 -40.84,-59.36 v 49.42 c 12.28,17.62 24.2,33.49 30.57,42.78 13.94,20.33 30.09,42 39.67,63.66 28.78,65.13 -11.7,128.85 -82.05,129.61 h -1.26 c -0.18,0 -0.35,0 -0.53,0 -0.18,0 -0.35,0 -0.53,0 h -1.26 c -70.350004,-0.76 -110.840004,-64.48 -82.050004,-129.61 9.58,-21.67 25.720004,-43.33 39.670004,-63.66 6.36,-9.28 18.28,-25.16 30.57,-42.78 v -49.42 c -11.92,19.75 -29.55,43.78 -40.84,59.36 -4.94,6.81 -9.210004,12.7 -12.360004,17.31 -2.22,3.23 -4.46,6.45 -6.84,9.87 -12.88,18.52 -26.21,37.67 -35.29,58.22 -8.83,19.97 -12.7,40.38 -11.49,60.65 1.16,19.65 7.28,38.57 17.68,54.73 10.28,15.97 24.74,29.21 41.810004,38.29 17.64,9.37 37.44,14.25 58.87,14.48 0.52,0 1.03,0 1.56,0 0.18,0 0.35,0 0.53,0 0.18,0 0.35,0 0.53,0 0.52,0 1.03,0 1.56,0 21.43,-0.23 41.23,-5.1 58.87,-14.48 17.07,-9.08 31.52,-22.32 41.81,-38.29 10.4,-16.16 16.52,-35.08 17.68,-54.73 1.2,-20.27 -2.67,-40.68 -11.49,-60.65 z"
     class="st7"
     id="path9"
     style="fill:url(#h)" />
</svg>
