<?xml version="1.0" encoding="UTF-8" standalone="no"?>
<svg
   viewBox="0 0 48 48"
   version="1.1"
   id="svg1"
   sodipodi:docname="kde-logo.svg"
   inkscape:version="1.4.2 (ebf0e940d0, 2025-05-08)"
   xmlns:inkscape="http://www.inkscape.org/namespaces/inkscape"
   xmlns:sodipodi="http://sodipodi.sourceforge.net/DTD/sodipodi-0.dtd"
   xmlns="http://www.w3.org/2000/svg"
   xmlns:svg="http://www.w3.org/2000/svg">
  <defs
     id="defs1" />
  <sodipodi:namedview
     id="namedview1"
     pagecolor="#ffffff"
     bordercolor="#000000"
     borderopacity="0.25"
     inkscape:showpageshadow="2"
     inkscape:pageopacity="0.0"
     inkscape:pagecheckerboard="0"
     inkscape:deskcolor="#d1d1d1"
     inkscape:zoom="3.6493813"
     inkscape:cx="30.416114"
     inkscape:cy="0.41102857"
     inkscape:window-width="1920"
     inkscape:window-height="964"
     inkscape:window-x="0"
     inkscape:window-y="0"
     inkscape:window-maximized="1"
     inkscape:current-layer="svg1" />
  <path
     d="M 27.529005,0.75495976 19.737342,1.5008617 V 33.584603 l 7.709261,-1.160642 V 18.744916 L 37.80935,33.916781 45.933333,31.346233 35.32212,16.755345 46.016458,2.9933307 37.726951,1.0874509 27.446784,14.848893 Z M 9.8671889,8.5732409 c -0.087988,0.00926 -0.1729593,0.048034 -0.2390344,0.1143572 L 6.5700927,11.745124 c -0.128579,0.128956 -0.1527978,0.328888 -0.058011,0.48502 l 3.5803553,5.896825 c -0.6350287,1.067586 -1.1439932,2.218658 -1.5077524,3.432915 l -6.5730371,1.367212 c -0.1828765,0.03787 -0.3146437,0.199915 -0.3146437,0.387583 v 4.324139 c 0,0.182901 0.1251151,0.341267 0.301333,0.383852 l 6.3798052,1.559421 c 0.3402139,1.406322 0.8674167,2.739501 1.5642005,3.964824 l -3.6928177,5.63114 c -0.1030277,0.157405 -0.081491,0.364692 0.051616,0.497249 l 3.0569758,3.057527 c 0.128579,0.128213 0.3292955,0.15334 0.4860906,0.05911 L 15.630907,39.27752 c 1.136674,0.655911 2.362453,1.172097 3.658044,1.522139 l 1.350157,6.491549 c 0.038,0.184009 0.200591,0.314663 0.387049,0.314663 h 4.324678 c 0.181809,0 0.340465,-0.124147 0.38386,-0.302432 l 1.590278,-6.504945 c 1.335524,-0.360424 2.598609,-0.897634 3.763084,-1.583364 l 5.702491,3.739005 c 0.156796,0.103277 0.364174,0.08258 0.497264,-0.05044 l 3.058063,-3.057507 c 0.129361,-0.129322 0.152528,-0.329278 0.05748,-0.485002 l -2.081748,-3.430789 -0.673494,0.212977 c -0.09818,0.03103 -0.205241,-0.0056 -0.262994,-0.09108 0,0 -1.327811,-1.943752 -3.042669,-4.453648 -2.050054,4.012118 -6.220796,6.760504 -11.03716,6.760504 -6.842881,0 -12.390531,-5.547855 -12.390531,-12.391071 0,-5.034072 3.002646,-9.363459 7.313017,-11.302852 v -3.196622 c -0.784489,0.274442 -1.542901,0.605346 -2.263212,0.997732 -5.26e-4,-4.81e-4 -0.0011,-0.0018 -0.0032,-0.0036 L 10.124747,8.634592 C 10.046141,8.5832338 9.9550316,8.5627294 9.8670775,8.5717758 Z"
     fill="#1d99f3"
     id="path1"
     style="stroke-width:1.30351" />
</svg>
